<svg version="1.1" id="Layer_1" xmlns="http://www.w3.org/2000/svg" xmlns:xlink="http://www.w3.org/1999/xlink" x="0px" y="0px"
	 width="100%" viewBox="0 0 945 709" enable-background="new 0 0 945 709" xml:space="preserve">
<path fill="#FBFBFC" opacity="1.000000" stroke="none" 
	d="
M672.000000,710.000000 
	C448.000061,710.000000 224.500137,710.000000 1.000150,710.000000 
	C1.000100,473.666809 1.000100,237.333603 1.000050,1.000309 
	C315.999786,1.000206 630.999573,1.000206 945.999512,1.000103 
	C945.999634,237.333023 945.999634,473.666046 945.999817,709.999512 
	C854.833313,710.000000 763.666687,710.000000 672.000000,710.000000 
M417.286316,594.273926 
	C416.885254,594.312500 416.484222,594.351135 415.319885,594.223389 
	C414.725403,594.703796 413.618378,595.177429 413.611908,595.665588 
	C413.474884,606.048828 413.416168,616.434143 413.524597,626.817139 
	C413.531921,627.521484 415.038147,628.831299 415.740631,628.763000 
	C416.813873,628.658691 417.794128,627.597961 418.917633,626.020081 
	C418.888062,620.345825 418.858490,614.671570 418.997223,608.080933 
	C418.623169,603.528809 418.249146,598.976746 417.286316,594.273926 
M838.917664,605.922607 
	C838.917664,605.922607 838.664978,605.668884 838.648071,604.938293 
	C840.638062,603.344299 842.751648,601.876892 844.567871,600.104797 
	C845.529724,599.166382 845.974670,597.698181 846.652954,596.469177 
	C845.384155,596.152527 843.994812,595.330383 842.865784,595.599731 
	C834.383972,597.623108 829.083618,608.057434 832.263550,616.156128 
	C834.957031,623.015686 844.060730,625.044006 849.193604,619.818054 
	C851.899414,617.063354 852.540710,613.675598 850.778748,610.164673 
	C848.253479,605.132690 843.831482,605.202942 838.917664,605.922607 
M486.728027,279.870483 
	C502.322998,276.649994 517.813721,273.255829 532.308167,266.177460 
	C547.846008,258.589539 561.566589,248.673523 571.444336,234.515793 
	C590.826538,206.735321 598.050171,175.229187 598.058655,141.745178 
	C598.059570,138.147873 596.343506,136.915207 593.206299,137.049149 
	C589.401917,137.211578 585.611206,137.722733 581.806824,137.849106 
	C562.736633,138.482498 544.277222,142.060394 526.724121,149.615738 
	C522.202515,151.561966 520.546631,150.554367 519.040405,145.944778 
	C510.817841,120.780571 496.095459,99.673393 477.644592,80.968109 
	C475.133392,78.422310 472.911469,78.230339 470.466827,80.925026 
	C466.447723,85.355164 462.157532,89.559456 458.377014,94.182304 
	C445.564331,109.849800 434.945435,126.833328 428.856720,146.292343 
	C427.452911,150.778839 425.564728,151.563614 421.384766,149.676636 
	C400.587433,140.287994 378.351379,138.159027 355.928986,136.950150 
	C351.328308,136.702118 349.917969,138.286972 349.934265,142.920334 
	C350.024323,168.518265 354.818726,193.094818 365.759003,216.269333 
	C376.194580,238.374741 392.498779,254.680664 414.590698,265.561890 
	C429.852020,273.078766 446.074646,276.726685 462.632172,280.887817 
	C462.191010,302.529907 461.602844,324.170837 461.427063,345.815094 
	C461.389862,350.397400 459.958160,351.595612 455.669037,351.161682 
	C443.750183,349.955933 431.798920,349.074493 419.872742,347.936279 
	C396.791534,345.733429 383.549438,330.825714 380.101471,311.954681 
	C377.174835,295.937012 375.334717,279.722870 372.885376,263.615204 
	C371.136627,252.114792 369.854858,240.499146 364.018677,230.030289 
	C355.600525,214.929871 336.285126,207.296219 320.659302,213.086563 
	C310.405548,216.886230 302.256805,228.362778 303.548279,237.185425 
	C312.844025,230.728714 318.800415,231.748734 325.016174,241.436935 
	C327.503723,245.314087 329.671875,249.608124 330.947479,254.012955 
	C335.619232,270.144897 339.776947,286.424774 344.277466,302.607483 
	C348.140564,316.498138 353.546082,329.870392 366.477966,337.595001 
	C375.085876,342.736725 384.567383,347.338806 394.258606,349.553253 
	C414.813049,354.249878 435.740540,357.346375 456.565338,360.795593 
	C460.080566,361.377869 461.418549,362.356110 461.400269,366.002014 
	C461.360168,373.987885 461.851501,381.975067 461.922699,389.963501 
	C461.955170,393.605927 461.990967,397.364288 461.181702,400.875671 
	C459.076904,410.007904 453.640747,416.635986 445.058197,420.666992 
	C439.567474,423.245972 435.425323,427.000488 434.827393,433.790436 
	C461.229706,433.790436 487.265656,433.790436 513.606079,433.790436 
	C512.221008,426.885925 507.975677,423.075592 502.341339,420.306763 
	C492.359283,415.401367 486.699860,407.180176 486.223022,396.221588 
	C485.768158,385.767181 486.384613,375.255280 486.872681,364.784607 
	C486.933655,363.476440 488.931519,361.409882 490.300751,361.158417 
	C496.181213,360.078339 502.179169,359.660950 508.103485,358.792084 
	C529.358276,355.674896 550.580566,352.423340 570.560669,343.904877 
	C584.786133,337.839874 595.071472,327.926453 600.033997,313.171173 
	C603.423523,303.092773 605.995911,292.742554 609.121948,282.571686 
	C613.070984,269.723206 616.917175,256.828979 621.414917,244.170227 
	C623.202332,239.139618 626.899841,234.282669 632.540405,233.590973 
	C636.517822,233.103226 640.807434,235.160995 644.795410,236.046249 
	C645.022705,226.116730 635.610474,214.747391 624.089111,212.055893 
	C604.972351,207.590042 585.110474,219.472290 580.061768,239.569717 
	C576.790710,252.590942 575.411011,266.080963 573.020386,279.331451 
	C570.487305,293.372253 569.062256,307.792511 564.766296,321.287109 
	C560.120422,335.880798 548.603333,344.649139 533.154053,347.023987 
	C523.625732,348.488678 513.994141,349.323212 504.389252,350.233063 
	C498.695099,350.772430 492.962769,350.908081 485.914520,351.299225 
	C485.914520,326.813599 485.914520,303.359039 486.728027,279.870483 
M45.436821,497.994019 
	C40.970913,491.773651 36.516884,485.544678 32.035812,479.335236 
	C27.387730,472.894257 25.951397,472.407806 17.886621,474.439697 
	C17.886621,503.656067 17.886621,532.879883 17.886621,562.078491 
	C21.426981,562.078491 24.628437,562.078491 28.395477,562.078491 
	C28.395477,538.320862 28.395477,514.987610 28.395477,491.273773 
	C29.246391,491.847260 29.598606,491.971222 29.775391,492.219940 
	C45.011852,513.650574 60.492287,534.915466 75.290947,556.644653 
	C79.367897,562.630920 83.913918,563.257751 89.933319,562.114136 
	C89.933319,532.628418 89.933319,503.363373 89.933319,473.910889 
	C86.582741,473.910889 83.474030,473.910889 79.706100,473.910889 
	C79.706100,497.626953 79.706100,521.127319 79.706100,545.593506 
	C67.974129,529.272766 56.931808,513.911438 45.436821,497.994019 
M382.243774,528.733826 
	C381.777527,541.214966 385.790802,551.890137 396.413330,558.836975 
	C408.941101,567.029907 421.485748,565.563232 433.616882,556.106689 
	C433.889648,558.518799 434.085968,560.254883 434.309326,562.230042 
	C437.771118,562.230042 440.999969,562.230042 444.309174,562.230042 
	C444.309174,541.087830 444.309174,520.254333 444.309174,499.179443 
	C439.914429,499.663788 434.905975,496.528870 433.005859,502.834320 
	C429.960754,501.497711 427.330261,499.985352 424.499542,499.157440 
	C402.319672,492.670105 383.625244,507.916840 382.243774,528.733826 
M108.362488,543.115417 
	C111.903122,552.058655 117.752953,558.847290 126.967514,562.130737 
	C138.199646,566.133179 148.453445,563.799805 157.826660,555.944641 
	C158.181656,558.516357 158.440979,560.394897 158.698074,562.257446 
	C162.187653,562.257446 165.290604,562.257446 168.480591,562.257446 
	C168.480591,541.122253 168.480591,520.263794 168.480591,499.069489 
	C164.226273,499.874023 159.072144,496.303711 157.331757,503.300781 
	C148.785385,497.697266 139.739410,496.286560 130.309677,498.715271 
	C111.871361,503.464264 102.325897,522.474121 108.362488,543.115417 
M295.987152,500.881378 
	C292.009247,497.283447 286.314880,498.403534 284.794403,503.083008 
	C265.500946,494.470276 250.343002,496.863159 240.400589,510.091156 
	C230.757446,522.921082 231.318787,541.445801 241.733231,553.537292 
	C246.358170,558.907104 252.205658,562.374023 259.140381,563.518738 
	C268.769379,565.108337 277.505219,562.757751 285.112518,555.607544 
	C285.398895,558.303833 285.602722,560.222900 285.804535,562.122925 
	C289.352203,562.122925 292.561279,562.122925 296.009644,562.122925 
	C296.009644,541.755554 296.009644,521.786804 295.987152,500.881378 
M868.389221,508.885284 
	C867.020020,510.969025 865.384094,512.926208 864.325928,515.157471 
	C858.415588,527.619629 859.117859,539.813293 866.989441,551.134949 
	C873.857117,561.012756 883.790161,565.466492 895.622620,563.482910 
	C901.388184,562.516296 906.777771,559.307251 912.316589,557.121582 
	C912.440125,558.325073 912.636841,560.241516 912.827454,562.098755 
	C916.398499,562.098755 919.600647,562.098755 922.653198,562.098755 
	C922.653198,540.930420 922.653198,520.187012 922.653198,499.015869 
	C918.536072,500.111664 913.189453,496.066711 911.779602,503.165894 
	C894.271179,494.460388 880.734680,496.123474 868.389221,508.885284 
M592.481812,554.663818 
	C576.836792,554.359741 566.571289,544.903503 568.782104,532.172607 
	C584.368286,532.172607 600.063354,532.172607 615.946167,532.172607 
	C615.946167,529.784912 616.021973,527.958191 615.933716,526.139343 
	C615.402893,515.200806 611.885681,505.652130 601.431213,500.670715 
	C590.711243,495.562775 580.027466,496.515717 570.320007,503.653687 
	C556.224609,514.018188 552.861206,536.455322 563.101746,550.729736 
	C573.016052,564.549377 597.959412,568.702087 612.473083,558.726624 
	C611.765137,556.315430 611.029785,553.810974 610.417114,551.724243 
	C604.461426,552.741333 598.940247,553.684204 592.481812,554.663818 
M735.671631,561.748535 
	C747.451111,565.599670 758.807312,564.302185 770.120422,559.439514 
	C769.678894,557.625061 769.421814,556.332031 769.042847,555.075684 
	C768.638306,553.734619 768.118713,552.428223 767.649963,551.108582 
	C739.110779,561.508728 724.348206,547.106323 726.229980,532.159180 
	C741.890442,532.159180 757.626831,532.159180 773.559326,532.159180 
	C773.559326,529.302856 773.671814,526.971436 773.541809,524.653564 
	C772.258362,501.764282 748.605713,489.823853 729.486511,502.561768 
	C717.927429,510.262878 713.876099,521.742554 715.092041,535.078674 
	C716.249207,547.769897 722.928284,556.734924 735.671631,561.748535 
M545.281738,482.812378 
	C547.073792,482.812378 548.865784,482.812378 550.933350,482.812378 
	C550.933350,479.567474 550.933350,476.855835 550.933350,474.077667 
	C533.243896,474.077667 515.890381,474.077667 498.590271,474.077667 
	C498.590271,503.729095 498.590271,532.947327 498.590271,562.123901 
	C502.199890,562.123901 505.418640,562.123901 509.070374,562.123901 
	C509.070374,548.467529 509.070374,535.221802 509.070374,521.615845 
	C522.604187,521.615845 535.697510,521.615845 549.010437,521.615845 
	C549.010437,518.513245 549.010437,515.787659 549.010437,512.731812 
	C535.600525,512.731812 522.483337,512.731812 509.146057,512.731812 
	C509.146057,502.663483 509.146057,492.930206 509.146057,482.812408 
	C521.082581,482.812408 532.708191,482.812408 545.281738,482.812378 
M192.365402,542.283569 
	C193.413864,560.035156 210.692627,569.281677 226.549942,560.105774 
	C225.690659,557.640808 224.801483,555.090210 224.102020,553.083801 
	C219.827347,553.393860 216.194382,553.979065 212.588837,553.842224 
	C207.387878,553.644775 203.364441,550.375427 203.190704,545.228027 
	C202.777420,532.983398 203.057602,520.715332 203.057602,507.928223 
	C209.346695,507.928223 215.250122,507.928223 221.134979,507.928223 
	C221.134979,504.787170 221.134979,502.184387 221.134979,498.988464 
	C214.975235,498.988464 209.087097,498.988464 202.768829,498.988464 
	C202.768829,491.996338 202.768829,485.593811 202.768829,479.203979 
	C199.078369,479.203979 195.848465,479.203979 192.040146,479.203979 
	C192.040146,485.944092 192.040146,492.336029 192.040146,499.244385 
	C188.393921,499.244385 185.327042,499.244385 182.303619,499.244385 
	C182.303619,502.515442 182.303619,505.220490 182.303619,508.014832 
	C185.807983,508.174042 188.884552,508.313843 192.364029,508.471954 
	C192.364029,519.765503 192.364029,530.550964 192.365402,542.283569 
M317.289429,515.499939 
	C317.397980,526.646240 317.142731,537.811646 317.725006,548.933167 
	C318.231659,558.610229 326.929749,564.807251 336.828003,563.163757 
	C337.203430,560.502441 337.587677,557.778687 337.955872,555.168762 
	C328.436249,551.826355 327.840363,550.987610 327.839111,541.360107 
	C327.836273,519.388123 327.837952,497.416107 327.837799,475.444092 
	C327.837799,473.686462 327.837799,471.928864 327.837799,470.214111 
	C324.007843,470.214111 320.785187,470.214111 317.289459,470.214111 
	C317.289459,485.226013 317.289459,499.862946 317.289429,515.499939 
M644.552246,504.228943 
	C643.825195,504.781250 643.098145,505.333557 642.121338,506.075653 
	C641.926880,503.485504 641.769714,501.392029 641.611389,499.282227 
	C638.153320,499.282227 635.052673,499.282227 631.802979,499.282227 
	C631.802979,520.536255 631.802979,541.531189 631.802979,562.506348 
	C635.306213,562.506348 638.393066,562.506348 641.899109,562.506348 
	C641.899109,548.255798 641.719727,534.316284 642.061096,520.389526 
	C642.124023,517.823792 643.722656,514.722046 645.605713,512.886841 
	C650.429504,508.185730 656.613831,506.344421 663.456421,507.211090 
	C663.456421,503.647797 663.456421,500.796417 663.456421,497.768982 
	C656.251770,497.396179 650.300842,499.387726 644.552246,504.228943 
M686.900146,529.514282 
	C686.900146,527.186829 687.212341,524.808044 686.839355,522.541992 
	C685.865845,516.627625 688.751648,512.792664 693.625793,510.617615 
	C698.205017,508.574158 703.186340,507.431763 708.447998,505.746490 
	C708.447998,503.757202 708.447998,500.897766 708.447998,497.888519 
	C699.858948,497.127106 693.218445,500.631165 687.089722,506.357269 
	C686.922180,503.521179 686.806763,501.566406 686.681030,499.437744 
	C683.258911,499.437744 680.069153,499.437744 676.803833,499.437744 
	C676.803833,520.666199 676.803833,541.532349 676.803833,562.351990 
	C680.331665,562.351990 683.527466,562.351990 686.900146,562.351990 
	C686.900146,551.444824 686.900146,540.976929 686.900146,529.514282 
M822.845764,527.499939 
	C822.845764,539.104187 822.845764,550.708435 822.845764,562.534424 
	C826.514343,562.534424 829.588989,562.534424 833.157654,562.534424 
	C833.157654,560.667908 833.157654,559.046875 833.157654,557.425842 
	C833.157715,545.097900 832.956726,532.764099 833.321167,520.446899 
	C833.397522,517.867188 834.983276,514.762512 836.869080,512.917114 
	C841.710083,508.179993 847.908691,506.302765 854.916687,507.135040 
	C854.916687,503.783325 854.916687,501.025116 854.916687,498.027130 
	C846.304932,496.904572 839.754700,500.752136 833.400085,506.281097 
	C833.192444,503.536621 833.037048,501.482269 832.876892,499.364960 
	C829.493774,499.364960 826.413452,499.364960 822.845764,499.364960 
	C822.845764,508.590576 822.845764,517.545227 822.845764,527.499939 
M801.512451,517.501343 
	C801.512451,511.548401 801.512451,505.595459 801.512451,499.433899 
	C797.735596,499.433899 794.530151,499.433899 791.160339,499.433899 
	C791.160339,520.524414 791.160339,541.252563 791.160339,562.174561 
	C794.646790,562.174561 797.869812,562.174561 801.512390,562.174561 
	C801.512390,547.388733 801.512390,532.944885 801.512451,517.501343 
M365.874420,548.490967 
	C365.874420,532.114197 365.874420,515.737427 365.874420,499.283142 
	C362.023895,499.283142 358.923615,499.283142 355.544006,499.283142 
	C355.544006,520.376831 355.544006,541.215698 355.544006,562.218872 
	C359.090027,562.218872 362.322174,562.218872 365.874420,562.218872 
	C365.874420,557.759094 365.874420,553.622192 365.874420,548.490967 
M176.427597,595.492737 
	C168.909302,598.669312 165.424408,605.380493 167.504715,612.676270 
	C169.436951,619.452759 175.952560,623.700928 182.738373,622.608704 
	C190.219482,621.404541 195.090042,615.330322 194.637543,607.768921 
	C194.120209,599.123779 187.636780,594.463867 176.427597,595.492737 
M507.112396,605.533630 
	C507.115479,609.857849 507.149994,614.182373 507.108337,618.506165 
	C507.087524,620.663818 507.239990,622.965820 510.095886,622.301758 
	C511.231293,622.037781 512.260376,620.090149 512.781128,618.700439 
	C513.539307,616.677551 513.794128,614.466064 514.263611,612.334961 
	C515.870300,613.952454 517.503967,615.544556 519.066345,617.203796 
	C519.509521,617.674438 519.809387,618.313538 520.064819,618.921753 
	C521.595703,622.566040 524.134521,623.232971 527.912109,621.650757 
	C526.380493,618.765808 524.805115,616.227905 523.699829,613.499573 
	C523.273499,612.447021 523.473083,610.639771 524.140198,609.725708 
	C528.985901,603.086609 526.311890,596.489380 518.145508,595.287231 
	C507.786926,593.762390 507.096436,594.341980 507.112396,605.533630 
M272.645660,597.731567 
	C271.783539,597.232666 270.963043,596.635010 270.052399,596.251221 
	C264.723846,594.004883 259.487976,594.292786 255.071930,598.062378 
	C250.701355,601.793213 249.136948,606.873840 250.690765,612.497620 
	C252.247665,618.132446 256.143951,621.504944 261.905457,622.559937 
	C267.243195,623.537292 273.119415,620.722351 275.932770,615.974976 
	C279.302795,610.288208 278.400177,604.372986 272.645660,597.731567 
M642.717041,617.590637 
	C645.424622,621.910156 649.303467,623.701294 654.232971,622.373962 
	C659.261658,621.019958 661.453430,616.967590 661.750854,612.256348 
	C661.986267,608.527466 661.566956,604.592346 660.561523,600.993774 
	C659.426514,596.931274 656.118164,595.043884 651.770691,594.977966 
	C647.265747,594.909729 644.064880,596.680908 642.334656,600.899536 
	C640.143982,606.240906 640.133179,611.580261 642.717041,617.590637 
M308.605621,622.150330 
	C319.505951,624.207886 322.419067,622.264099 321.653503,613.104858 
	C321.543121,611.784058 320.134735,609.789917 318.972198,609.492004 
	C316.030365,608.738159 315.849243,611.130432 316.061920,613.230347 
	C316.544647,617.996155 313.324768,618.511719 310.473846,617.100342 
	C308.122803,615.936401 305.673248,613.283081 304.976807,610.808655 
	C303.414490,605.257629 306.780914,598.564392 316.104980,599.919495 
	C317.215149,600.080933 318.535400,598.796936 319.758301,598.182983 
	C318.736511,597.172546 317.854736,595.511230 316.670380,595.256409 
	C308.501709,593.499023 301.495697,597.384338 299.174744,604.658142 
	C296.901215,611.783203 300.230957,618.421509 308.605621,622.150330 
M550.820190,622.370544 
	C553.205200,622.734558 554.923950,622.096252 554.502625,619.304871 
	C553.709961,614.053345 555.871826,612.545227 561.046204,612.574402 
	C566.228638,612.603455 569.713196,608.541443 569.739014,604.082520 
	C569.763855,599.786621 566.617798,596.133728 561.638306,595.454224 
	C558.215210,594.987061 554.672180,595.071472 551.219849,595.357361 
	C550.253906,595.437317 548.670227,597.085815 548.643799,598.049683 
	C548.439514,605.507812 548.513733,612.974915 548.624695,620.437439 
	C548.633484,621.031616 549.565552,621.612000 550.820190,622.370544 
M38.081100,599.495239 
	C33.906719,593.681213 27.678740,595.564514 22.038969,595.184448 
	C19.113647,594.987305 18.317835,596.477966 18.352777,599.114990 
	C18.438705,605.599304 18.205637,612.094177 18.526766,618.563660 
	C18.592907,619.896240 20.511930,621.136719 21.576942,622.419678 
	C22.416359,621.124329 24.062902,619.755371 23.952707,618.546631 
	C23.521069,613.811829 25.513546,612.783569 29.953320,612.626709 
	C37.750175,612.351257 40.941715,607.216248 38.081100,599.495239 
M360.721191,621.438477 
	C362.606689,621.699463 364.492218,621.960449 367.147614,622.327942 
	C363.826752,613.462158 361.060944,605.810730 358.034454,598.263794 
	C357.535400,597.019348 356.020813,595.704895 354.741241,595.397217 
	C353.661407,595.137573 351.452942,595.976379 351.095367,596.869812 
	C347.853333,604.969788 344.908386,613.188660 341.876465,621.372742 
	C342.309662,621.862244 342.742828,622.351807 343.175995,622.841309 
	C344.952972,621.781433 347.742401,621.103271 348.313446,619.588684 
	C349.902191,615.374573 353.122192,617.020630 355.822235,616.652893 
	C358.978912,616.222900 359.753418,618.412109 360.721191,621.438477 
M765.674011,622.381714 
	C771.858765,619.726257 774.172424,616.797119 772.552429,612.059387 
	C771.745850,609.700745 769.415894,607.221863 767.142700,606.189148 
	C764.940491,605.188721 761.927795,605.972229 759.441406,605.972229 
	C758.646057,600.109253 769.454956,602.602722 767.451050,595.257568 
	C761.904907,595.091003 758.037231,597.749146 755.414307,601.707214 
	C752.261108,606.465576 751.103943,611.906128 753.981323,617.316833 
	C756.263855,621.608887 760.162292,623.139404 765.674011,622.381714 
M697.816101,618.267883 
	C700.806580,611.669189 698.769592,606.986084 692.337402,605.072510 
	C690.941101,604.657104 689.845154,603.232422 688.610840,602.272644 
	C690.009888,601.532227 691.401611,600.777649 692.809814,600.055237 
	C694.342468,599.269043 697.114258,598.646301 697.215210,597.720032 
	C697.604614,594.149109 694.487549,595.208801 692.597290,595.238281 
	C681.125793,595.417175 682.653625,593.021545 682.398926,605.638367 
	C682.330505,609.027588 683.748840,610.135315 686.873962,609.827209 
	C687.862122,609.729797 689.066162,609.498047 689.826172,609.932129 
	C691.100220,610.659851 692.897339,611.798706 692.998901,612.900513 
	C693.113892,614.148438 691.888306,615.969788 690.717773,616.754883 
	C689.632446,617.482788 687.831909,617.398071 686.380127,617.274536 
	C683.089844,616.994446 682.332581,618.547180 682.779480,621.506470 
	C688.237915,623.073730 693.130249,622.887512 697.816101,618.267883 
M803.334229,621.949707 
	C807.616211,620.627380 810.923828,618.445068 810.846375,613.333496 
	C810.786377,609.369324 808.739685,606.878784 805.130005,605.398315 
	C803.348083,604.667480 801.711121,603.583008 800.008606,602.658569 
	C801.883240,601.818604 803.752502,600.966003 805.638367,600.151978 
	C805.928589,600.026733 806.430359,600.206970 806.603027,600.025635 
	C807.394348,599.194519 808.732361,598.232666 808.664551,597.418396 
	C808.597107,596.609314 807.165466,595.406128 806.196655,595.257324 
	C794.841187,593.513733 793.991272,594.271362 794.170593,605.511108 
	C794.190979,606.790466 794.417358,608.066528 794.601501,609.864868 
	C796.989197,609.864868 799.229980,609.447388 801.194214,610.004639 
	C802.617554,610.408386 804.601562,612.070557 804.643738,613.233032 
	C804.689453,614.492615 803.002136,616.228088 801.641602,616.998596 
	C800.495056,617.648010 798.638062,616.912476 797.274109,617.348572 
	C796.125305,617.715942 795.233276,618.886719 794.227539,619.701843 
	C795.036316,620.523193 795.744934,621.879761 796.674866,622.053894 
	C798.578247,622.410278 800.600464,622.131470 803.334229,621.949707 
M69.442223,595.026306 
	C64.711197,594.877869 60.770634,596.160339 59.476627,601.290527 
	C58.468517,605.287292 61.049397,608.398376 66.296738,610.959595 
	C68.077431,611.828674 69.313942,613.812805 70.799164,615.287415 
	C68.772057,615.968445 66.762444,616.711548 64.706741,617.291260 
	C64.122070,617.456116 63.276073,616.874329 62.772938,617.110291 
	C61.757278,617.586731 60.213493,618.326660 60.144970,619.073242 
	C60.063469,619.961243 61.090706,621.416565 62.006115,621.853271 
	C67.104416,624.284668 74.374252,622.067871 76.456734,617.647156 
	C78.564575,613.172607 76.246986,609.523865 69.783745,606.242432 
	C68.180237,605.428284 67.178314,603.429260 65.899841,601.974915 
	C67.807800,601.450439 69.837112,600.235779 71.598381,600.545532 
	C75.228737,601.183899 76.495522,600.113708 76.089325,596.218445 
	C74.119064,595.816284 72.203018,595.425110 69.442223,595.026306 
M127.154373,603.867737 
	C124.268181,614.992432 131.593414,623.969177 142.633957,622.610046 
	C144.078415,622.432251 145.359787,620.929626 146.716705,620.040588 
	C145.255234,619.201111 143.822342,617.698792 142.327469,617.634399 
	C134.987625,617.318115 131.698563,613.949951 132.590179,607.127502 
	C133.268585,601.936462 136.636795,599.760376 143.132553,599.891052 
	C144.294800,599.914429 145.482925,598.652161 146.659119,597.983582 
	C145.605423,597.014038 144.667831,595.393738 143.479019,595.181702 
	C136.262619,593.894531 131.457565,596.394531 127.154373,603.867737 
M474.957703,601.180908 
	C478.137604,600.629089 481.317505,600.077271 485.829468,599.294312 
	C484.863953,597.842041 484.226715,595.661377 483.027832,595.289062 
	C477.453857,593.557922 471.136169,595.921692 467.930695,600.428894 
	C464.437286,605.341003 464.225128,611.384094 467.371460,616.360657 
	C470.375549,621.112244 476.990936,623.899292 482.627380,622.497437 
	C483.748291,622.218750 484.591339,620.822632 485.562531,619.941833 
	C484.388489,619.187195 483.157318,617.716797 482.050629,617.805237 
	C477.874176,618.138855 474.239044,617.398193 472.259979,613.459595 
	C470.108765,609.178223 470.752655,605.076660 474.957703,601.180908 
M276.779785,479.369812 
	C278.649261,476.891998 280.518768,474.414215 283.002777,471.121979 
	C278.616821,471.121979 275.192627,471.022369 271.780823,471.184021 
	C270.785522,471.231171 269.405304,471.754547 268.916748,472.517609 
	C265.446198,477.938080 262.161316,483.477448 258.739777,489.106445 
	C266.927734,491.044159 268.123779,490.675842 272.409027,485.103699 
	C273.729401,483.386780 275.012817,481.641418 276.779785,479.369812 
M886.722534,596.623840 
	C881.950317,596.142944 877.184631,595.519348 872.400391,595.301331 
	C871.442200,595.257629 870.413513,596.758850 869.417358,597.547729 
	C870.387512,598.375549 871.262512,599.728760 872.346924,599.925110 
	C874.833618,600.375427 877.422485,600.261353 880.569275,600.403442 
	C877.936646,608.004272 875.571655,614.832397 873.197876,621.685974 
	C876.667969,623.153381 878.881958,622.629333 879.931396,619.307983 
	C882.234070,612.020447 884.515930,604.726318 886.722534,596.623840 
M919.361389,608.960754 
	C920.717285,604.659790 922.073242,600.358826 923.694702,595.215515 
	C917.432312,595.215515 912.646118,595.092712 907.877808,595.330444 
	C907.035034,595.372437 906.267334,596.919067 905.464966,597.770874 
	C906.329041,598.522949 907.129456,599.812256 908.069458,599.923706 
	C910.615906,600.225464 913.221619,600.027161 916.679565,600.027161 
	C913.994690,607.889832 911.629395,614.816528 909.266541,621.736084 
	C913.244568,623.379883 915.190735,622.023499 916.205078,618.721436 
	C917.131409,615.705811 918.120361,612.709412 919.361389,608.960754 
M215.422729,616.314148 
	C215.422729,618.093811 215.422729,619.873474 215.422729,622.155029 
	C220.529388,622.155029 224.990646,622.275024 229.434402,622.049622 
	C230.282013,622.006653 231.060440,620.599548 231.870773,619.821777 
	C231.019699,619.045471 230.286057,617.915710 229.287323,617.583862 
	C228.086365,617.184814 226.647278,617.341248 225.333466,617.474976 
	C222.118103,617.802063 220.864395,616.539917 221.018005,613.233521 
	C221.241379,608.425415 221.266708,603.586792 220.949066,598.789490 
	C220.867233,597.553650 219.187378,596.423523 218.241638,595.244873 
	C217.302734,596.466797 215.623108,597.647888 215.553223,598.917603 
	C215.252335,604.384094 215.423920,609.876587 215.422729,616.314148 
M726.601440,617.264404 
	C729.059021,609.776367 731.516602,602.288391 734.020874,594.657959 
	C728.873840,594.167603 728.744446,594.166992 727.472168,597.882874 
	C725.965515,602.283569 724.657166,606.751770 723.189758,611.166382 
	C721.539917,616.130005 719.808655,621.066528 718.060913,626.166199 
	C721.915039,627.391663 723.892578,626.655457 724.612183,623.204285 
	C724.982971,621.426086 725.734924,619.727295 726.601440,617.264404 
M99.440201,619.066040 
	C99.608124,623.695801 102.666222,621.936462 105.668007,621.801025 
	C105.668007,614.223877 105.651665,606.819336 105.677612,599.414978 
	C105.685760,597.090637 105.480392,594.604980 102.399689,595.400940 
	C101.155396,595.722412 99.626877,597.906555 99.558777,599.307617 
	C99.254082,605.576416 99.429314,611.868591 99.440201,619.066040 
M355.270386,475.591461 
	C353.414490,480.679626 354.984619,485.050751 359.219818,485.054382 
	C361.538849,485.056366 364.967651,483.469757 365.866638,481.615540 
	C366.757507,479.778229 365.898132,475.948334 364.379028,474.343933 
	C361.848846,471.671753 358.379150,472.102203 355.270386,475.591461 
M790.086365,477.320496 
	C789.284973,481.645599 790.935486,484.585602 795.313782,485.265076 
	C798.872681,485.817352 801.980713,484.004242 802.173523,480.450623 
	C802.297241,478.170746 800.763733,474.818329 798.899475,473.627655 
	C795.527771,471.474365 792.228088,472.935333 790.086365,477.320496 
M590.739502,621.937317 
	C592.321777,621.696655 594.109558,621.798767 595.379883,621.037537 
	C595.852478,620.754333 595.522400,618.140747 594.788818,617.173462 
	C594.273804,616.494324 591.605103,616.338684 591.377625,616.755920 
	C590.643005,618.103333 590.592590,619.823792 590.739502,621.937317 
M590.719482,604.018860 
	C590.823486,605.729492 590.754395,607.484924 591.176086,609.113342 
	C591.261536,609.443420 593.706665,609.765503 594.174194,609.263184 
	C595.041382,608.331299 595.995667,606.051514 595.591675,605.644226 
	C594.549805,604.593689 592.786499,604.258728 590.719482,604.018860 
M180.626907,593.009888 
	C182.700409,591.577576 184.773895,590.145325 186.847397,588.713013 
	C180.687134,587.070801 179.517609,588.094849 180.626907,593.009888 
z"/>
<path fill="#559AA1" opacity="1.000000" stroke="none" 
	d="
M485.914520,279.904510 
	C485.914520,303.359039 485.914520,326.813599 485.914520,351.299225 
	C492.962769,350.908081 498.695099,350.772430 504.389252,350.233063 
	C513.994141,349.323212 523.625732,348.488678 533.154053,347.023987 
	C548.603333,344.649139 560.120422,335.880798 564.766296,321.287109 
	C569.062256,307.792511 570.487305,293.372253 573.020386,279.331451 
	C575.411011,266.080963 576.790710,252.590942 580.061768,239.569717 
	C585.110474,219.472290 604.972351,207.590042 624.089111,212.055893 
	C635.610474,214.747391 645.022705,226.116730 644.795410,236.046249 
	C640.807434,235.160995 636.517822,233.103226 632.540405,233.590973 
	C626.899841,234.282669 623.202332,239.139618 621.414917,244.170227 
	C616.917175,256.828979 613.070984,269.723206 609.121948,282.571686 
	C605.995911,292.742554 603.423523,303.092773 600.033997,313.171173 
	C595.071472,327.926453 584.786133,337.839874 570.560669,343.904877 
	C550.580566,352.423340 529.358276,355.674896 508.103485,358.792084 
	C502.179169,359.660950 496.181213,360.078339 490.300751,361.158417 
	C488.931519,361.409882 486.933655,363.476440 486.872681,364.784607 
	C486.384613,375.255280 485.768158,385.767181 486.223022,396.221588 
	C486.699860,407.180176 492.359283,415.401367 502.341339,420.306763 
	C507.975677,423.075592 512.221008,426.885925 513.606079,433.790436 
	C487.265656,433.790436 461.229706,433.790436 434.827393,433.790436 
	C435.425323,427.000488 439.567474,423.245972 445.058197,420.666992 
	C453.640747,416.635986 459.076904,410.007904 461.181702,400.875671 
	C461.990967,397.364288 461.955170,393.605927 461.922699,389.963501 
	C461.851501,381.975067 461.360168,373.987885 461.400269,366.002014 
	C461.418549,362.356110 460.080566,361.377869 456.565338,360.795593 
	C435.740540,357.346375 414.813049,354.249878 394.258606,349.553253 
	C384.567383,347.338806 375.085876,342.736725 366.477966,337.595001 
	C353.546082,329.870392 348.140564,316.498138 344.277466,302.607483 
	C339.776947,286.424774 335.619232,270.144897 330.947479,254.012955 
	C329.671875,249.608124 327.503723,245.314087 325.016174,241.436935 
	C318.800415,231.748734 312.844025,230.728714 303.548279,237.185425 
	C302.256805,228.362778 310.405548,216.886230 320.659302,213.086563 
	C336.285126,207.296219 355.600525,214.929871 364.018677,230.030289 
	C369.854858,240.499146 371.136627,252.114792 372.885376,263.615204 
	C375.334717,279.722870 377.174835,295.937012 380.101471,311.954681 
	C383.549438,330.825714 396.791534,345.733429 419.872742,347.936279 
	C431.798920,349.074493 443.750183,349.955933 455.669037,351.161682 
	C459.958160,351.595612 461.389862,350.397400 461.427063,345.815094 
	C461.602844,324.170837 462.191010,302.529907 462.915833,280.196899 
	C470.771179,279.638794 478.342834,279.771667 485.914520,279.904510 
z"/>
<path fill="#CD98DF" opacity="1.000000" stroke="none" 
	d="
M486.321289,279.887512 
	C478.342834,279.771667 470.771179,279.638794 462.841797,279.798981 
	C446.074646,276.726685 429.852020,273.078766 414.590698,265.561890 
	C392.498779,254.680664 376.194580,238.374741 365.759003,216.269333 
	C354.818726,193.094818 350.024323,168.518265 349.934265,142.920334 
	C349.917969,138.286972 351.328308,136.702118 355.928986,136.950150 
	C378.351379,138.159027 400.587433,140.287994 421.384766,149.676636 
	C425.564728,151.563614 427.452911,150.778839 428.856720,146.292343 
	C434.945435,126.833328 445.564331,109.849800 458.377014,94.182304 
	C462.157532,89.559456 466.447723,85.355164 470.466827,80.925026 
	C472.911469,78.230339 475.133392,78.422310 477.644592,80.968109 
	C496.095459,99.673393 510.817841,120.780571 519.040405,145.944778 
	C520.546631,150.554367 522.202515,151.561966 526.724121,149.615738 
	C544.277222,142.060394 562.736633,138.482498 581.806824,137.849106 
	C585.611206,137.722733 589.401917,137.211578 593.206299,137.049149 
	C596.343506,136.915207 598.059570,138.147873 598.058655,141.745178 
	C598.050171,175.229187 590.826538,206.735321 571.444336,234.515793 
	C561.566589,248.673523 547.846008,258.589539 532.308167,266.177460 
	C517.813721,273.255829 502.322998,276.649994 486.321289,279.887512 
M516.536133,221.005951 
	C509.976349,237.279251 500.361145,251.726776 489.382874,265.718201 
	C555.834473,255.640594 582.420044,208.669312 584.267517,149.668915 
	C575.535828,151.087570 566.798340,151.888199 558.401855,154.027588 
	C547.842224,156.718124 537.531372,160.414902 527.200928,163.935196 
	C525.975708,164.352707 524.370911,166.503235 524.512146,167.658417 
	C526.746338,185.928162 523.407471,203.333145 516.536133,221.005951 
M369.230743,189.086273 
	C370.456909,192.527008 371.696747,195.962921 372.907104,199.409180 
	C387.000275,239.536331 417.653351,258.402802 458.791901,266.007233 
	C435.220978,235.827621 419.093658,204.157700 423.722351,165.160995 
	C404.723358,155.553802 384.444305,151.883972 362.127502,150.025909 
	C364.558380,163.380112 366.825958,175.837372 369.230743,189.086273 
M464.935089,180.579102 
	C467.868103,184.468231 470.801147,188.357376 474.210388,192.877975 
	C475.348389,191.351700 475.994293,190.589157 476.527588,189.754684 
	C484.441650,177.370895 494.625610,167.299973 506.984161,159.334030 
	C507.990540,158.685364 508.640717,156.223679 508.288330,154.920151 
	C504.252441,139.990677 496.894012,126.610184 488.225739,113.960518 
	C484.063019,107.885887 479.172485,102.310028 473.792206,95.466072 
	C468.565826,102.575470 464.233337,108.600723 459.763184,114.522041 
	C450.550720,126.725243 444.126160,140.321228 439.723694,154.880402 
	C439.325531,156.197174 440.323151,158.573700 441.451355,159.611282 
	C449.000519,166.553726 456.761017,173.266388 464.935089,180.579102 
M456.092529,239.854935 
	C456.687469,238.889709 457.526703,237.996948 457.837891,236.947586 
	C459.907013,229.970428 461.103424,222.616959 464.064728,216.054169 
	C467.168732,209.175095 465.138763,203.883041 461.590912,198.436920 
	C459.508179,195.239761 457.412476,192.012268 454.963501,189.100479 
	C449.766571,182.921478 444.329559,176.946121 435.502350,172.481857 
	C436.216614,180.717041 436.380005,187.929077 437.546661,194.974991 
	C440.215698,211.094177 447.097137,225.596283 456.092529,239.854935 
M481.986237,206.889160 
	C482.342163,208.819000 482.521606,210.802155 483.085632,212.669144 
	C485.142059,219.476578 487.359863,226.235123 489.443817,233.034485 
	C490.091400,235.147339 490.507385,237.331192 491.125763,239.879669 
	C505.688171,222.276108 515.637085,185.090942 510.441345,173.387299 
	C497.664551,181.457382 489.234314,193.196457 481.986237,206.889160 
z"/>
<path fill="#070707" opacity="1.000000" stroke="none" 
	d="
M45.663155,498.272034 
	C56.931808,513.911438 67.974129,529.272766 79.706100,545.593506 
	C79.706100,521.127319 79.706100,497.626953 79.706100,473.910889 
	C83.474030,473.910889 86.582741,473.910889 89.933319,473.910889 
	C89.933319,503.363373 89.933319,532.628418 89.933319,562.114136 
	C83.913918,563.257751 79.367897,562.630920 75.290947,556.644653 
	C60.492287,534.915466 45.011852,513.650574 29.775391,492.219940 
	C29.598606,491.971222 29.246391,491.847260 28.395477,491.273773 
	C28.395477,514.987610 28.395477,538.320862 28.395477,562.078491 
	C24.628437,562.078491 21.426981,562.078491 17.886621,562.078491 
	C17.886621,532.879883 17.886621,503.656067 17.886621,474.439697 
	C25.951397,472.407806 27.387730,472.894257 32.035812,479.335236 
	C36.516884,485.544678 40.970913,491.773651 45.663155,498.272034 
z"/>
<path fill="#0F0F0F" opacity="1.000000" stroke="none" 
	d="
M382.254425,528.281372 
	C383.625244,507.916840 402.319672,492.670105 424.499542,499.157440 
	C427.330261,499.985352 429.960754,501.497711 433.005859,502.834320 
	C434.905975,496.528870 439.914429,499.663788 444.309174,499.179443 
	C444.309174,520.254333 444.309174,541.087830 444.309174,562.230042 
	C440.999969,562.230042 437.771118,562.230042 434.309326,562.230042 
	C434.085968,560.254883 433.889648,558.518799 433.616882,556.106689 
	C421.485748,565.563232 408.941101,567.029907 396.413330,558.836975 
	C385.790802,551.890137 381.777527,541.214966 382.254425,528.281372 
M414.704285,507.055695 
	C404.646759,507.696472 396.964752,513.747681 393.846130,523.485962 
	C390.832092,532.897400 393.869080,543.309387 401.468933,549.620056 
	C408.463409,555.428040 418.839142,556.401428 426.711243,551.839905 
	C431.436554,549.101807 434.528534,545.429260 434.154785,539.392639 
	C433.806122,533.762207 434.074554,528.093567 434.072998,522.441711 
	C434.070099,511.866150 432.452942,509.814331 422.014404,507.619385 
	C419.923218,507.179657 417.728943,507.229889 414.704285,507.055695 
z"/>
<path fill="#0E0E0E" opacity="1.000000" stroke="none" 
	d="
M108.253662,542.732971 
	C102.325897,522.474121 111.871361,503.464264 130.309677,498.715271 
	C139.739410,496.286560 148.785385,497.697266 157.331757,503.300781 
	C159.072144,496.303711 164.226273,499.874023 168.480591,499.069489 
	C168.480591,520.263794 168.480591,541.122253 168.480591,562.257446 
	C165.290604,562.257446 162.187653,562.257446 158.698074,562.257446 
	C158.440979,560.394897 158.181656,558.516357 157.826660,555.944641 
	C148.453445,563.799805 138.199646,566.133179 126.967514,562.130737 
	C117.752953,558.847290 111.903122,552.058655 108.253662,542.732971 
M128.054901,510.348999 
	C126.185692,511.985657 124.088196,513.426392 122.486191,515.292419 
	C114.893959,524.135742 115.000580,537.450256 122.584877,546.484436 
	C129.693619,554.952148 141.788116,557.263000 151.014816,551.801819 
	C155.718933,549.017517 158.779434,545.325195 158.356766,539.276367 
	C157.975006,533.812744 158.271149,528.301575 158.270569,522.811401 
	C158.269424,511.866699 155.608093,508.291382 144.585449,507.473419 
	C139.378433,507.087036 133.997055,509.049927 128.054901,510.348999 
z"/>
<path fill="#0B0B0B" opacity="1.000000" stroke="none" 
	d="
M295.998413,501.349731 
	C296.009644,521.786804 296.009644,541.755554 296.009644,562.122925 
	C292.561279,562.122925 289.352203,562.122925 285.804535,562.122925 
	C285.602722,560.222900 285.398895,558.303833 285.112518,555.607544 
	C277.505219,562.757751 268.769379,565.108337 259.140381,563.518738 
	C252.205658,562.374023 246.358170,558.907104 241.733231,553.537292 
	C231.318787,541.445801 230.757446,522.921082 240.400589,510.091156 
	C250.343002,496.863159 265.500946,494.470276 284.794403,503.083008 
	C286.314880,498.403534 292.009247,497.283447 295.998413,501.349731 
M244.490005,535.658813 
	C244.933228,537.087097 245.275330,538.556458 245.835312,539.937378 
	C251.458664,553.804993 268.007141,559.145752 279.704895,550.871155 
	C283.425018,548.239685 285.730896,544.961426 285.575226,540.033264 
	C285.328461,532.222595 285.702972,524.389587 285.352417,516.586853 
	C285.267181,514.689880 283.841949,512.071655 282.245911,511.154541 
	C273.694519,506.240753 264.620758,504.782074 255.752518,510.123810 
	C246.549179,515.667358 243.104813,524.259399 244.490005,535.658813 
z"/>
<path fill="#0B0B0B" opacity="1.000000" stroke="none" 
	d="
M868.617371,508.615265 
	C880.734680,496.123474 894.271179,494.460388 911.779602,503.165894 
	C913.189453,496.066711 918.536072,500.111664 922.653198,499.015869 
	C922.653198,520.187012 922.653198,540.930420 922.653198,562.098755 
	C919.600647,562.098755 916.398499,562.098755 912.827454,562.098755 
	C912.636841,560.241516 912.440125,558.325073 912.316589,557.121582 
	C906.777771,559.307251 901.388184,562.516296 895.622620,563.482910 
	C883.790161,565.466492 873.857117,561.012756 866.989441,551.134949 
	C859.117859,539.813293 858.415588,527.619629 864.325928,515.157471 
	C865.384094,512.926208 867.020020,510.969025 868.617371,508.615265 
M892.729736,507.040894 
	C882.687134,507.899841 875.189941,514.020630 872.118469,523.868103 
	C869.219360,533.162964 872.551331,543.864563 880.218994,549.885864 
	C887.345459,555.482239 897.355957,556.354675 905.073853,551.917419 
	C909.812988,549.192749 912.948364,545.547119 912.605042,539.505798 
	C912.275269,533.702881 912.510742,527.867432 912.509888,522.046265 
	C912.508423,511.896973 911.083923,510.030029 901.030151,507.764435 
	C898.627075,507.222900 896.092590,507.264709 892.729736,507.040894 
z"/>
<path fill="#0B0B0B" opacity="1.000000" stroke="none" 
	d="
M592.950439,554.645386 
	C598.940247,553.684204 604.461426,552.741333 610.417114,551.724243 
	C611.029785,553.810974 611.765137,556.315430 612.473083,558.726624 
	C597.959412,568.702087 573.016052,564.549377 563.101746,550.729736 
	C552.861206,536.455322 556.224609,514.018188 570.320007,503.653687 
	C580.027466,496.515717 590.711243,495.562775 601.431213,500.670715 
	C611.885681,505.652130 615.402893,515.200806 615.933716,526.139343 
	C616.021973,527.958191 615.946167,529.784912 615.946167,532.172607 
	C600.063354,532.172607 584.368286,532.172607 568.782104,532.172607 
	C566.571289,544.903503 576.836792,554.359741 592.950439,554.645386 
M581.032104,508.189484 
	C574.476685,510.951935 570.652771,515.896545 568.790588,522.693420 
	C581.216736,522.693420 593.101990,522.693420 605.006958,522.693420 
	C604.009094,510.567322 594.528870,504.674988 581.032104,508.189484 
z"/>
<path fill="#0B0B0B" opacity="1.000000" stroke="none" 
	d="
M735.314575,561.601440 
	C722.928284,556.734924 716.249207,547.769897 715.092041,535.078674 
	C713.876099,521.742554 717.927429,510.262878 729.486511,502.561768 
	C748.605713,489.823853 772.258362,501.764282 773.541809,524.653564 
	C773.671814,526.971436 773.559326,529.302856 773.559326,532.159180 
	C757.626831,532.159180 741.890442,532.159180 726.229980,532.159180 
	C724.348206,547.106323 739.110779,561.508728 767.649963,551.108582 
	C768.118713,552.428223 768.638306,553.734619 769.042847,555.075684 
	C769.421814,556.332031 769.678894,557.625061 770.120422,559.439514 
	C758.807312,564.302185 747.451111,565.599670 735.314575,561.601440 
M757.245239,523.047119 
	C759.012268,523.047119 760.779358,523.047119 762.589661,523.047119 
	C761.699707,512.785767 755.623901,507.131805 745.950500,507.034637 
	C736.117981,506.935883 727.879761,513.764099 726.881531,523.046997 
	C736.705139,523.046997 746.505493,523.046997 757.245239,523.047119 
z"/>
<path fill="#0F0F0F" opacity="1.000000" stroke="none" 
	d="
M544.807739,482.812378 
	C532.708191,482.812408 521.082581,482.812408 509.146057,482.812408 
	C509.146057,492.930206 509.146057,502.663483 509.146057,512.731812 
	C522.483337,512.731812 535.600525,512.731812 549.010437,512.731812 
	C549.010437,515.787659 549.010437,518.513245 549.010437,521.615845 
	C535.697510,521.615845 522.604187,521.615845 509.070374,521.615845 
	C509.070374,535.221802 509.070374,548.467529 509.070374,562.123901 
	C505.418640,562.123901 502.199890,562.123901 498.590271,562.123901 
	C498.590271,532.947327 498.590271,503.729095 498.590271,474.077667 
	C515.890381,474.077667 533.243896,474.077667 550.933350,474.077667 
	C550.933350,476.855835 550.933350,479.567474 550.933350,482.812378 
	C548.865784,482.812378 547.073792,482.812378 544.807739,482.812378 
z"/>
<path fill="#0F0F0F" opacity="1.000000" stroke="none" 
	d="
M192.364716,541.809998 
	C192.364029,530.550964 192.364029,519.765503 192.364029,508.471954 
	C188.884552,508.313843 185.807983,508.174042 182.303619,508.014832 
	C182.303619,505.220490 182.303619,502.515442 182.303619,499.244385 
	C185.327042,499.244385 188.393921,499.244385 192.040146,499.244385 
	C192.040146,492.336029 192.040146,485.944092 192.040146,479.203979 
	C195.848465,479.203979 199.078369,479.203979 202.768829,479.203979 
	C202.768829,485.593811 202.768829,491.996338 202.768829,498.988464 
	C209.087097,498.988464 214.975235,498.988464 221.134979,498.988464 
	C221.134979,502.184387 221.134979,504.787170 221.134979,507.928223 
	C215.250122,507.928223 209.346695,507.928223 203.057602,507.928223 
	C203.057602,520.715332 202.777420,532.983398 203.190704,545.228027 
	C203.364441,550.375427 207.387878,553.644775 212.588837,553.842224 
	C216.194382,553.979065 219.827347,553.393860 224.102020,553.083801 
	C224.801483,555.090210 225.690659,557.640808 226.549942,560.105774 
	C210.692627,569.281677 193.413864,560.035156 192.364716,541.809998 
z"/>
<path fill="#111111" opacity="1.000000" stroke="none" 
	d="
M317.289429,514.999878 
	C317.289459,499.862946 317.289459,485.226013 317.289459,470.214111 
	C320.785187,470.214111 324.007843,470.214111 327.837799,470.214111 
	C327.837799,471.928864 327.837799,473.686462 327.837799,475.444092 
	C327.837952,497.416107 327.836273,519.388123 327.839111,541.360107 
	C327.840363,550.987610 328.436249,551.826355 337.955872,555.168762 
	C337.587677,557.778687 337.203430,560.502441 336.828003,563.163757 
	C326.929749,564.807251 318.231659,558.610229 317.725006,548.933167 
	C317.142731,537.811646 317.397980,526.646240 317.289429,514.999878 
z"/>
<path fill="#121212" opacity="1.000000" stroke="none" 
	d="
M644.833374,503.986786 
	C650.300842,499.387726 656.251770,497.396179 663.456421,497.768982 
	C663.456421,500.796417 663.456421,503.647797 663.456421,507.211090 
	C656.613831,506.344421 650.429504,508.185730 645.605713,512.886841 
	C643.722656,514.722046 642.124023,517.823792 642.061096,520.389526 
	C641.719727,534.316284 641.899109,548.255798 641.899109,562.506348 
	C638.393066,562.506348 635.306213,562.506348 631.802979,562.506348 
	C631.802979,541.531189 631.802979,520.536255 631.802979,499.282227 
	C635.052673,499.282227 638.153320,499.282227 641.611389,499.282227 
	C641.769714,501.392029 641.926880,503.485504 642.121338,506.075653 
	C643.098145,505.333557 643.825195,504.781250 644.833374,503.986786 
z"/>
<path fill="#0A0A0A" opacity="1.000000" stroke="none" 
	d="
M686.900146,530.011597 
	C686.900146,540.976929 686.900146,551.444824 686.900146,562.351990 
	C683.527466,562.351990 680.331665,562.351990 676.803833,562.351990 
	C676.803833,541.532349 676.803833,520.666199 676.803833,499.437744 
	C680.069153,499.437744 683.258911,499.437744 686.681030,499.437744 
	C686.806763,501.566406 686.922180,503.521179 687.089722,506.357269 
	C693.218445,500.631165 699.858948,497.127106 708.447998,497.888519 
	C708.447998,500.897766 708.447998,503.757202 708.447998,505.746490 
	C703.186340,507.431763 698.205017,508.574158 693.625793,510.617615 
	C688.751648,512.792664 685.865845,516.627625 686.839355,522.541992 
	C687.212341,524.808044 686.900146,527.186829 686.900146,530.011597 
z"/>
<path fill="#080808" opacity="1.000000" stroke="none" 
	d="
M822.845764,526.999878 
	C822.845764,517.545227 822.845764,508.590576 822.845764,499.364960 
	C826.413452,499.364960 829.493774,499.364960 832.876892,499.364960 
	C833.037048,501.482269 833.192444,503.536621 833.400085,506.281097 
	C839.754700,500.752136 846.304932,496.904572 854.916687,498.027130 
	C854.916687,501.025116 854.916687,503.783325 854.916687,507.135040 
	C847.908691,506.302765 841.710083,508.179993 836.869080,512.917114 
	C834.983276,514.762512 833.397522,517.867188 833.321167,520.446899 
	C832.956726,532.764099 833.157715,545.097900 833.157654,557.425842 
	C833.157654,559.046875 833.157654,560.667908 833.157654,562.534424 
	C829.588989,562.534424 826.514343,562.534424 822.845764,562.534424 
	C822.845764,550.708435 822.845764,539.104187 822.845764,526.999878 
z"/>
<path fill="#0B0B0B" opacity="1.000000" stroke="none" 
	d="
M801.512451,518.001160 
	C801.512390,532.944885 801.512390,547.388733 801.512390,562.174561 
	C797.869812,562.174561 794.646790,562.174561 791.160339,562.174561 
	C791.160339,541.252563 791.160339,520.524414 791.160339,499.433899 
	C794.530151,499.433899 797.735596,499.433899 801.512451,499.433899 
	C801.512451,505.595459 801.512451,511.548401 801.512451,518.001160 
z"/>
<path fill="#121212" opacity="1.000000" stroke="none" 
	d="
M365.874420,548.988098 
	C365.874420,553.622192 365.874420,557.759094 365.874420,562.218872 
	C362.322174,562.218872 359.090027,562.218872 355.544006,562.218872 
	C355.544006,541.215698 355.544006,520.376831 355.544006,499.283142 
	C358.923615,499.283142 362.023895,499.283142 365.874420,499.283142 
	C365.874420,515.737427 365.874420,532.114197 365.874420,548.988098 
z"/>
<path fill="#68A0A6" opacity="1.000000" stroke="none" 
	d="
M176.820160,595.368896 
	C187.636780,594.463867 194.120209,599.123779 194.637543,607.768921 
	C195.090042,615.330322 190.219482,621.404541 182.738373,622.608704 
	C175.952560,623.700928 169.436951,619.452759 167.504715,612.676270 
	C165.424408,605.380493 168.909302,598.669312 176.820160,595.368896 
M179.711411,599.859009 
	C178.380478,600.432190 176.813293,600.729492 175.762451,601.629639 
	C172.471939,604.448425 171.812256,608.516907 173.403107,612.030090 
	C174.507629,614.469238 177.456421,617.162415 179.936584,617.567749 
	C182.192200,617.936401 185.786163,616.006104 187.286835,613.977234 
	C191.454010,608.343689 187.605881,600.815613 179.711411,599.859009 
z"/>
<path fill="#6BA2A8" opacity="1.000000" stroke="none" 
	d="
M507.110840,605.042847 
	C507.096436,594.341980 507.786926,593.762390 518.145508,595.287231 
	C526.311890,596.489380 528.985901,603.086609 524.140198,609.725708 
	C523.473083,610.639771 523.273499,612.447021 523.699829,613.499573 
	C524.805115,616.227905 526.380493,618.765808 527.912109,621.650757 
	C524.134521,623.232971 521.595703,622.566040 520.064819,618.921753 
	C519.809387,618.313538 519.509521,617.674438 519.066345,617.203796 
	C517.503967,615.544556 515.870300,613.952454 514.263550,612.334961 
	C513.794128,614.466064 513.539307,616.677551 512.781128,618.700439 
	C512.260376,620.090149 511.231293,622.037781 510.095886,622.301758 
	C507.239990,622.965820 507.087524,620.663818 507.108337,618.506165 
	C507.149994,614.182373 507.115479,609.857849 507.110840,605.042847 
M517.054626,600.001892 
	C510.723480,599.637024 513.026978,603.682983 513.358276,608.384033 
	C516.345215,606.827820 518.550415,605.678894 520.755615,604.529968 
	C519.796326,603.061035 518.837097,601.592102 517.054626,600.001892 
z"/>
<path fill="#67A0A5" opacity="1.000000" stroke="none" 
	d="
M272.933624,597.969849 
	C278.400177,604.372986 279.302795,610.288208 275.932770,615.974976 
	C273.119415,620.722351 267.243195,623.537292 261.905457,622.559937 
	C256.143951,621.504944 252.247665,618.132446 250.690765,612.497620 
	C249.136948,606.873840 250.701355,601.793213 255.071930,598.062378 
	C259.487976,594.292786 264.723846,594.004883 270.052399,596.251221 
	C270.963043,596.635010 271.783539,597.232666 272.933624,597.969849 
M258.504364,601.937195 
	C254.249420,608.757324 256.092773,616.570862 262.302826,617.788391 
	C265.918488,618.497253 268.891876,617.337280 270.809845,614.086853 
	C273.019379,610.342224 272.489685,604.942749 269.555206,602.027283 
	C266.312317,598.805420 262.732971,599.261414 258.504364,601.937195 
z"/>
<path fill="#68A0A6" opacity="1.000000" stroke="none" 
	d="
M642.556641,617.249146 
	C640.133179,611.580261 640.143982,606.240906 642.334656,600.899536 
	C644.064880,596.680908 647.265747,594.909729 651.770691,594.977966 
	C656.118164,595.043884 659.426514,596.931274 660.561523,600.993774 
	C661.566956,604.592346 661.986267,608.527466 661.750854,612.256348 
	C661.453430,616.967590 659.261658,621.019958 654.232971,622.373962 
	C649.303467,623.701294 645.424622,621.910156 642.556641,617.249146 
M656.181946,605.879211 
	C654.795532,603.885559 653.639282,601.623047 651.854370,600.094849 
	C651.429504,599.731079 647.699890,601.673950 647.558716,602.812317 
	C647.059082,606.842163 647.162964,611.022278 647.702271,615.056580 
	C647.851379,616.172607 650.263000,617.628845 651.716248,617.724976 
	C652.882385,617.802185 654.910645,616.270569 655.250854,615.079895 
	C656.007385,612.432617 655.945557,609.551453 656.181946,605.879211 
z"/>
<path fill="#6AA0A6" opacity="1.000000" stroke="none" 
	d="
M308.222168,622.040649 
	C300.230957,618.421509 296.901215,611.783203 299.174744,604.658142 
	C301.495697,597.384338 308.501709,593.499023 316.670380,595.256409 
	C317.854736,595.511230 318.736511,597.172546 319.758301,598.182983 
	C318.535400,598.796936 317.215149,600.080933 316.104980,599.919495 
	C306.780914,598.564392 303.414490,605.257629 304.976807,610.808655 
	C305.673248,613.283081 308.122803,615.936401 310.473846,617.100342 
	C313.324768,618.511719 316.544647,617.996155 316.061920,613.230347 
	C315.849243,611.130432 316.030365,608.738159 318.972198,609.492004 
	C320.134735,609.789917 321.543121,611.784058 321.653503,613.104858 
	C322.419067,622.264099 319.505951,624.207886 308.222168,622.040649 
z"/>
<path fill="#68A0A6" opacity="1.000000" stroke="none" 
	d="
M550.444336,622.284668 
	C549.565552,621.612000 548.633484,621.031616 548.624695,620.437439 
	C548.513733,612.974915 548.439514,605.507812 548.643799,598.049683 
	C548.670227,597.085815 550.253906,595.437317 551.219849,595.357361 
	C554.672180,595.071472 558.215210,594.987061 561.638306,595.454224 
	C566.617798,596.133728 569.763855,599.786621 569.739014,604.082520 
	C569.713196,608.541443 566.228638,612.603455 561.046204,612.574402 
	C555.871826,612.545227 553.709961,614.053345 554.502625,619.304871 
	C554.923950,622.096252 553.205200,622.734558 550.444336,622.284668 
M554.918213,607.681213 
	C557.679871,607.179810 560.498962,606.856018 563.145813,605.999634 
	C563.579407,605.859375 563.668213,602.328186 563.210571,602.147034 
	C560.757874,601.175903 558.085083,600.753052 555.476379,600.196533 
	C555.246826,600.147644 554.931274,600.501709 554.376038,600.837891 
	C554.376038,602.783264 554.376038,604.899414 554.918213,607.681213 
z"/>
<path fill="#68A0A6" opacity="1.000000" stroke="none" 
	d="
M38.266724,599.817139 
	C40.941715,607.216248 37.750175,612.351257 29.953320,612.626709 
	C25.513546,612.783569 23.521069,613.811829 23.952707,618.546631 
	C24.062902,619.755371 22.416359,621.124329 21.576935,622.419678 
	C20.511930,621.136719 18.592907,619.896240 18.526766,618.563660 
	C18.205637,612.094177 18.438705,605.599304 18.352777,599.114990 
	C18.317835,596.477966 19.113647,594.987305 22.038969,595.184448 
	C27.678740,595.564514 33.906719,593.681213 38.266724,599.817139 
M24.031116,605.338867 
	C24.745707,610.031372 28.348038,608.128784 30.584871,607.669006 
	C31.868757,607.405090 32.697674,604.927734 33.731400,603.446838 
	C31.623363,602.282593 29.636282,600.602478 27.379343,600.073181 
	C23.870707,599.250366 23.919418,602.027100 24.031116,605.338867 
z"/>
<path fill="#659FA5" opacity="1.000000" stroke="none" 
	d="
M360.543274,621.109863 
	C359.753418,618.412109 358.978912,616.222900 355.822235,616.652893 
	C353.122192,617.020630 349.902191,615.374573 348.313446,619.588684 
	C347.742401,621.103271 344.952972,621.781433 343.175995,622.841309 
	C342.742828,622.351807 342.309662,621.862244 341.876465,621.372742 
	C344.908386,613.188660 347.853333,604.969788 351.095367,596.869812 
	C351.452942,595.976379 353.661407,595.137573 354.741241,595.397217 
	C356.020813,595.704895 357.535400,597.019348 358.034454,598.263794 
	C361.060944,605.810730 363.826752,613.462158 367.147614,622.327942 
	C364.492218,621.960449 362.606689,621.699463 360.543274,621.109863 
M351.568237,609.944946 
	C353.105499,610.787109 354.642792,611.629272 356.180054,612.471436 
	C356.522308,612.040039 356.864532,611.608643 357.206787,611.177246 
	C356.403381,608.417114 355.599976,605.657043 354.462952,601.750671 
	C353.327576,604.964661 352.573883,607.098145 351.568237,609.944946 
z"/>
<path fill="#67A0A5" opacity="1.000000" stroke="none" 
	d="
M765.299377,622.479797 
	C760.162292,623.139404 756.263855,621.608887 753.981323,617.316833 
	C751.103943,611.906128 752.261108,606.465576 755.414307,601.707214 
	C758.037231,597.749146 761.904907,595.091003 767.451050,595.257568 
	C769.454956,602.602722 758.646057,600.109253 759.441406,605.972229 
	C761.927795,605.972229 764.940491,605.188721 767.142700,606.189148 
	C769.415894,607.221863 771.745850,609.700745 772.552429,612.059387 
	C774.172424,616.797119 771.858765,619.726257 765.299377,622.479797 
M759.363281,616.258606 
	C760.029907,616.723755 760.774475,617.662109 761.348938,617.567505 
	C763.259705,617.252808 765.355347,616.913757 766.857483,615.847656 
	C767.432007,615.439880 767.051208,612.103210 766.309631,611.743896 
	C764.615540,610.922852 762.246460,610.555237 760.518677,611.122314 
	C759.596863,611.424805 759.438171,614.052795 759.363281,616.258606 
z"/>
<path fill="#67A0A5" opacity="1.000000" stroke="none" 
	d="
M839.166748,606.179688 
	C843.831482,605.202942 848.253479,605.132690 850.778748,610.164673 
	C852.540710,613.675598 851.899414,617.063354 849.193604,619.818054 
	C844.060730,625.044006 834.957031,623.015686 832.263550,616.156128 
	C829.083618,608.057434 834.383972,597.623108 842.865784,595.599731 
	C843.994812,595.330383 845.384155,596.152527 846.652954,596.469177 
	C845.974670,597.698181 845.529724,599.166382 844.567871,600.104797 
	C842.751648,601.876892 840.638062,603.344299 838.491821,605.449158 
	C838.400757,606.206116 838.465942,606.452148 838.531128,606.698242 
	C838.742981,606.525391 838.954834,606.352539 839.166748,606.179688 
M845.101196,611.641174 
	C844.380066,611.257935 843.581238,610.454590 842.952454,610.570862 
	C841.129822,610.907776 839.232666,611.378662 837.682617,612.320312 
	C837.225525,612.597839 837.372070,615.199829 838.035461,615.715393 
	C839.436218,616.803711 841.425110,617.913879 843.056824,617.762878 
	C846.381592,617.455200 846.679016,614.997681 845.101196,611.641174 
z"/>
<path fill="#6BA1A7" opacity="1.000000" stroke="none" 
	d="
M697.569824,618.541992 
	C693.130249,622.887512 688.237915,623.073730 682.779480,621.506470 
	C682.332581,618.547180 683.089844,616.994446 686.380127,617.274536 
	C687.831909,617.398071 689.632446,617.482788 690.717773,616.754883 
	C691.888306,615.969788 693.113892,614.148438 692.998901,612.900513 
	C692.897339,611.798706 691.100220,610.659851 689.826172,609.932129 
	C689.066162,609.498047 687.862122,609.729797 686.873962,609.827209 
	C683.748840,610.135315 682.330505,609.027588 682.398926,605.638367 
	C682.653625,593.021545 681.125793,595.417175 692.597290,595.238281 
	C694.487549,595.208801 697.604614,594.149109 697.215210,597.720032 
	C697.114258,598.646301 694.342468,599.269043 692.809814,600.055237 
	C691.401611,600.777649 690.009888,601.532227 688.610840,602.272583 
	C689.845154,603.232422 690.941101,604.657104 692.337402,605.072510 
	C698.769592,606.986084 700.806580,611.669189 697.569824,618.541992 
z"/>
<path fill="#6EA3A8" opacity="1.000000" stroke="none" 
	d="
M802.953979,622.031982 
	C800.600464,622.131470 798.578247,622.410278 796.674866,622.053894 
	C795.744934,621.879761 795.036316,620.523193 794.227539,619.701843 
	C795.233276,618.886719 796.125305,617.715942 797.274109,617.348572 
	C798.638062,616.912476 800.495056,617.648010 801.641602,616.998596 
	C803.002136,616.228088 804.689453,614.492615 804.643738,613.233032 
	C804.601562,612.070557 802.617554,610.408386 801.194214,610.004639 
	C799.229980,609.447388 796.989197,609.864868 794.601501,609.864868 
	C794.417358,608.066528 794.190979,606.790466 794.170593,605.511108 
	C793.991272,594.271362 794.841187,593.513733 806.196655,595.257324 
	C807.165466,595.406128 808.597107,596.609314 808.664551,597.418396 
	C808.732361,598.232666 807.394348,599.194519 806.603027,600.025635 
	C806.430359,600.206970 805.928589,600.026733 805.638367,600.151978 
	C803.752502,600.966003 801.883240,601.818604 800.008606,602.658569 
	C801.711121,603.583008 803.348083,604.667480 805.130005,605.398315 
	C808.739685,606.878784 810.786377,609.369324 810.846375,613.333496 
	C810.923828,618.445068 807.616211,620.627380 802.953979,622.031982 
z"/>
<path fill="#67A0A5" opacity="1.000000" stroke="none" 
	d="
M69.864594,595.030151 
	C72.203018,595.425110 74.119064,595.816284 76.089325,596.218445 
	C76.495522,600.113708 75.228737,601.183899 71.598381,600.545532 
	C69.837112,600.235779 67.807800,601.450439 65.899857,601.974915 
	C67.178314,603.429260 68.180237,605.428284 69.783745,606.242432 
	C76.246986,609.523865 78.564575,613.172607 76.456734,617.647156 
	C74.374252,622.067871 67.104416,624.284668 62.006115,621.853271 
	C61.090706,621.416565 60.063469,619.961243 60.144970,619.073242 
	C60.213493,618.326660 61.757278,617.586731 62.772938,617.110291 
	C63.276073,616.874329 64.122070,617.456116 64.706741,617.291260 
	C66.762444,616.711548 68.772057,615.968445 70.799149,615.287354 
	C69.313942,613.812805 68.077431,611.828674 66.296738,610.959595 
	C61.049397,608.398376 58.468517,605.287292 59.476627,601.290527 
	C60.770634,596.160339 64.711197,594.877869 69.864594,595.030151 
z"/>
<path fill="#6AA0A6" opacity="1.000000" stroke="none" 
	d="
M127.269760,603.499390 
	C131.457565,596.394531 136.262619,593.894531 143.479019,595.181702 
	C144.667831,595.393738 145.605423,597.014038 146.659119,597.983582 
	C145.482925,598.652161 144.294800,599.914429 143.132553,599.891052 
	C136.636795,599.760376 133.268585,601.936462 132.590179,607.127502 
	C131.698563,613.949951 134.987625,617.318115 142.327469,617.634399 
	C143.822342,617.698792 145.255234,619.201111 146.716705,620.040588 
	C145.359787,620.929626 144.078415,622.432251 142.633957,622.610046 
	C131.593414,623.969177 124.268181,614.992432 127.269760,603.499390 
z"/>
<path fill="#6AA0A6" opacity="1.000000" stroke="none" 
	d="
M474.626587,601.402222 
	C470.752655,605.076660 470.108765,609.178223 472.259979,613.459595 
	C474.239044,617.398193 477.874176,618.138855 482.050629,617.805237 
	C483.157318,617.716797 484.388489,619.187195 485.562531,619.941833 
	C484.591339,620.822632 483.748291,622.218750 482.627380,622.497437 
	C476.990936,623.899292 470.375549,621.112244 467.371460,616.360657 
	C464.225128,611.384094 464.437286,605.341003 467.930695,600.428894 
	C471.136169,595.921692 477.453857,593.557922 483.027832,595.289062 
	C484.226715,595.661377 484.863953,597.842041 485.829468,599.294312 
	C481.317505,600.077271 478.137604,600.629089 474.626587,601.402222 
z"/>
<path fill="#121212" opacity="1.000000" stroke="none" 
	d="
M276.546478,479.639465 
	C275.012817,481.641418 273.729401,483.386780 272.409027,485.103699 
	C268.123779,490.675842 266.927734,491.044159 258.739777,489.106445 
	C262.161316,483.477448 265.446198,477.938080 268.916748,472.517609 
	C269.405304,471.754547 270.785522,471.231171 271.780823,471.184021 
	C275.192627,471.022369 278.616821,471.121979 283.002777,471.121979 
	C280.518768,474.414215 278.649261,476.891998 276.546478,479.639465 
z"/>
<path fill="#6EA3A8" opacity="1.000000" stroke="none" 
	d="
M886.764404,597.029358 
	C884.515930,604.726318 882.234070,612.020447 879.931396,619.307983 
	C878.881958,622.629333 876.667969,623.153381 873.197876,621.685974 
	C875.571655,614.832397 877.936646,608.004272 880.569275,600.403442 
	C877.422485,600.261353 874.833618,600.375427 872.346924,599.925110 
	C871.262512,599.728760 870.387512,598.375549 869.417358,597.547729 
	C870.413513,596.758850 871.442200,595.257629 872.400391,595.301331 
	C877.184631,595.519348 881.950317,596.142944 886.764404,597.029358 
z"/>
<path fill="#6EA3A8" opacity="1.000000" stroke="none" 
	d="
M919.221558,609.332642 
	C918.120361,612.709412 917.131409,615.705811 916.205078,618.721436 
	C915.190735,622.023499 913.244568,623.379883 909.266541,621.736084 
	C911.629395,614.816528 913.994690,607.889832 916.679565,600.027161 
	C913.221619,600.027161 910.615906,600.225464 908.069458,599.923706 
	C907.129456,599.812256 906.329041,598.522949 905.464966,597.770874 
	C906.267334,596.919067 907.035034,595.372437 907.877808,595.330444 
	C912.646118,595.092712 917.432312,595.215515 923.694702,595.215515 
	C922.073242,600.358826 920.717285,604.659790 919.221558,609.332642 
z"/>
<path fill="#659DA3" opacity="1.000000" stroke="none" 
	d="
M215.423080,615.836914 
	C215.423920,609.876587 215.252335,604.384094 215.553223,598.917603 
	C215.623108,597.647888 217.302734,596.466797 218.241638,595.244873 
	C219.187378,596.423523 220.867233,597.553650 220.949066,598.789490 
	C221.266708,603.586792 221.241379,608.425415 221.018005,613.233521 
	C220.864395,616.539917 222.118103,617.802063 225.333466,617.474976 
	C226.647278,617.341248 228.086365,617.184814 229.287323,617.583862 
	C230.286057,617.915710 231.019699,619.045471 231.870789,619.821777 
	C231.060440,620.599548 230.282013,622.006653 229.434402,622.049622 
	C224.990646,622.275024 220.529388,622.155029 215.422729,622.155029 
	C215.422729,619.873474 215.422729,618.093811 215.423080,615.836914 
z"/>
<path fill="#6EA3A8" opacity="1.000000" stroke="none" 
	d="
M726.458069,617.628540 
	C725.734924,619.727295 724.982971,621.426086 724.612183,623.204285 
	C723.892578,626.655457 721.915039,627.391663 718.060913,626.166199 
	C719.808655,621.066528 721.539917,616.130005 723.189758,611.166382 
	C724.657166,606.751770 725.965515,602.283569 727.472168,597.882874 
	C728.744446,594.166992 728.873840,594.167603 734.020874,594.657959 
	C731.516602,602.288391 729.059021,609.776367 726.458069,617.628540 
z"/>
<path fill="#659FA5" opacity="1.000000" stroke="none" 
	d="
M99.435738,618.609131 
	C99.429314,611.868591 99.254082,605.576416 99.558777,599.307617 
	C99.626877,597.906555 101.155396,595.722412 102.399689,595.400940 
	C105.480392,594.604980 105.685760,597.090637 105.677612,599.414978 
	C105.651665,606.819336 105.668007,614.223877 105.668007,621.801025 
	C102.666222,621.936462 99.608124,623.695801 99.435738,618.609131 
z"/>
<path fill="#151515" opacity="1.000000" stroke="none" 
	d="
M355.476440,475.320618 
	C358.379150,472.102203 361.848846,471.671753 364.379028,474.343933 
	C365.898132,475.948334 366.757507,479.778229 365.866638,481.615540 
	C364.967651,483.469757 361.538849,485.056366 359.219818,485.054382 
	C354.984619,485.050751 353.414490,480.679626 355.476440,475.320618 
z"/>
<path fill="#151515" opacity="1.000000" stroke="none" 
	d="
M790.193298,476.991516 
	C792.228088,472.935333 795.527771,471.474365 798.899475,473.627655 
	C800.763733,474.818329 802.297241,478.170746 802.173523,480.450623 
	C801.980713,484.004242 798.872681,485.817352 795.313782,485.265076 
	C790.935486,484.585602 789.284973,481.645599 790.193298,476.991516 
z"/>
<path fill="#559AA1" opacity="1.000000" stroke="none" 
	d="
M418.828918,608.997314 
	C418.858490,614.671570 418.888062,620.345825 418.455566,626.502197 
	C416.997650,625.864502 415.240082,624.806885 415.142853,623.613892 
	C414.793060,619.321655 414.865723,614.978210 415.037262,610.664429 
	C415.253143,605.234253 415.722931,599.814148 416.083160,594.389709 
	C416.484222,594.351135 416.885254,594.312500 417.613159,594.779846 
	C418.236267,599.856262 418.532593,604.426819 418.828918,608.997314 
z"/>
<path fill="#7EAAAD" opacity="1.000000" stroke="none" 
	d="
M415.701538,594.306519 
	C415.722931,599.814148 415.253143,605.234253 415.037262,610.664429 
	C414.865723,614.978210 414.793060,619.321655 415.142853,623.613892 
	C415.240082,624.806885 416.997650,625.864502 418.403687,626.963745 
	C417.794128,627.597961 416.813873,628.658691 415.740631,628.763000 
	C415.038147,628.831299 413.531921,627.521484 413.524597,626.817139 
	C413.416168,616.434143 413.474884,606.048828 413.611908,595.665588 
	C413.618378,595.177429 414.725403,594.703796 415.701538,594.306519 
z"/>
<path fill="#7EAAAD" opacity="1.000000" stroke="none" 
	d="
M590.509033,621.668884 
	C590.592590,619.823792 590.643005,618.103333 591.377625,616.755920 
	C591.605103,616.338684 594.273804,616.494324 594.788818,617.173462 
	C595.522400,618.140747 595.852478,620.754333 595.379883,621.037537 
	C594.109558,621.798767 592.321777,621.696655 590.509033,621.668884 
z"/>
<path fill="#7EAAAD" opacity="1.000000" stroke="none" 
	d="
M591.015442,603.828369 
	C592.786499,604.258728 594.549805,604.593689 595.591675,605.644226 
	C595.995667,606.051514 595.041382,608.331299 594.174194,609.263184 
	C593.706665,609.765503 591.261536,609.443420 591.176086,609.113342 
	C590.754395,607.484924 590.823486,605.729492 591.015442,603.828369 
z"/>
<path fill="#7EAAAD" opacity="1.000000" stroke="none" 
	d="
M180.254395,592.935547 
	C179.517609,588.094849 180.687134,587.070801 186.847397,588.713013 
	C184.773895,590.145325 182.700409,591.577576 180.254395,592.935547 
z"/>
<path fill="#7EAAAD" opacity="1.000000" stroke="none" 
	d="
M418.913086,608.539124 
	C418.532593,604.426819 418.236267,599.856262 417.907532,594.855225 
	C418.249146,598.976746 418.623169,603.528809 418.913086,608.539124 
z"/>
<path fill="#FBFBFC" opacity="1.000000" stroke="none" 
	d="
M516.693970,220.649963 
	C523.407471,203.333145 526.746338,185.928162 524.512146,167.658417 
	C524.370911,166.503235 525.975708,164.352707 527.200928,163.935196 
	C537.531372,160.414902 547.842224,156.718124 558.401855,154.027588 
	C566.798340,151.888199 575.535828,151.087570 584.267517,149.668915 
	C582.420044,208.669312 555.834473,255.640594 489.382874,265.718201 
	C500.361145,251.726776 509.976349,237.279251 516.693970,220.649963 
z"/>
<path fill="#FBFBFC" opacity="1.000000" stroke="none" 
	d="
M369.162170,188.690460 
	C366.825958,175.837372 364.558380,163.380112 362.127502,150.025909 
	C384.444305,151.883972 404.723358,155.553802 423.722351,165.160995 
	C419.093658,204.157700 435.220978,235.827621 458.791901,266.007233 
	C417.653351,258.402802 387.000275,239.536331 372.907104,199.409180 
	C371.696747,195.962921 370.456909,192.527008 369.162170,188.690460 
z"/>
<path fill="#FBFAFB" opacity="1.000000" stroke="none" 
	d="
M464.694031,180.316376 
	C456.761017,173.266388 449.000519,166.553726 441.451355,159.611282 
	C440.323151,158.573700 439.325531,156.197174 439.723694,154.880402 
	C444.126160,140.321228 450.550720,126.725243 459.763184,114.522041 
	C464.233337,108.600723 468.565826,102.575470 473.792206,95.466072 
	C479.172485,102.310028 484.063019,107.885887 488.225739,113.960518 
	C496.894012,126.610184 504.252441,139.990677 508.288330,154.920151 
	C508.640717,156.223679 507.990540,158.685364 506.984161,159.334030 
	C494.625610,167.299973 484.441650,177.370895 476.527588,189.754684 
	C475.994293,190.589157 475.348389,191.351700 474.210388,192.877975 
	C470.801147,188.357376 467.868103,184.468231 464.694031,180.316376 
z"/>
<path fill="#FBF9FB" opacity="1.000000" stroke="none" 
	d="
M455.919922,239.587112 
	C447.097137,225.596283 440.215698,211.094177 437.546661,194.974991 
	C436.380005,187.929077 436.216614,180.717041 435.502350,172.481857 
	C444.329559,176.946121 449.766571,182.921478 454.963501,189.100479 
	C457.412476,192.012268 459.508179,195.239761 461.590912,198.436920 
	C465.138763,203.883041 467.168732,209.175095 464.064728,216.054169 
	C461.103424,222.616959 459.907013,229.970428 457.837891,236.947586 
	C457.526703,237.996948 456.687469,238.889709 455.919922,239.587112 
z"/>
<path fill="#FBF9FB" opacity="1.000000" stroke="none" 
	d="
M482.063629,206.496201 
	C489.234314,193.196457 497.664551,181.457382 510.441345,173.387299 
	C515.637085,185.090942 505.688171,222.276108 491.125763,239.879669 
	C490.507385,237.331192 490.091400,235.147339 489.443817,233.034485 
	C487.359863,226.235123 485.142059,219.476578 483.085632,212.669144 
	C482.521606,210.802155 482.342163,208.819000 482.063629,206.496201 
z"/>
<path fill="#F7F7F7" opacity="1.000000" stroke="none" 
	d="
M415.143250,507.054962 
	C417.728943,507.229889 419.923218,507.179657 422.014404,507.619385 
	C432.452942,509.814331 434.070099,511.866150 434.072998,522.441711 
	C434.074554,528.093567 433.806122,533.762207 434.154785,539.392639 
	C434.528534,545.429260 431.436554,549.101807 426.711243,551.839905 
	C418.839142,556.401428 408.463409,555.428040 401.468933,549.620056 
	C393.869080,543.309387 390.832092,532.897400 393.846130,523.485962 
	C396.964752,513.747681 404.646759,507.696472 415.143250,507.054962 
z"/>
<path fill="#F7F7F7" opacity="1.000000" stroke="none" 
	d="
M128.374786,510.148682 
	C133.997055,509.049927 139.378433,507.087036 144.585449,507.473419 
	C155.608093,508.291382 158.269424,511.866699 158.270569,522.811401 
	C158.271149,528.301575 157.975006,533.812744 158.356766,539.276367 
	C158.779434,545.325195 155.718933,549.017517 151.014816,551.801819 
	C141.788116,557.263000 129.693619,554.952148 122.584877,546.484436 
	C115.000580,537.450256 114.893959,524.135742 122.486191,515.292419 
	C124.088196,513.426392 126.185692,511.985657 128.374786,510.148682 
z"/>
<path fill="#F6F6F6" opacity="1.000000" stroke="none" 
	d="
M244.421814,535.241638 
	C243.104813,524.259399 246.549179,515.667358 255.752518,510.123810 
	C264.620758,504.782074 273.694519,506.240753 282.245911,511.154541 
	C283.841949,512.071655 285.267181,514.689880 285.352417,516.586853 
	C285.702972,524.389587 285.328461,532.222595 285.575226,540.033264 
	C285.730896,544.961426 283.425018,548.239685 279.704895,550.871155 
	C268.007141,559.145752 251.458664,553.804993 245.835312,539.937378 
	C245.275330,538.556458 244.933228,537.087097 244.421814,535.241638 
z"/>
<path fill="#F5F5F5" opacity="1.000000" stroke="none" 
	d="
M893.174133,507.039551 
	C896.092590,507.264709 898.627075,507.222900 901.030151,507.764435 
	C911.083923,510.030029 912.508423,511.896973 912.509888,522.046265 
	C912.510742,527.867432 912.275269,533.702881 912.605042,539.505798 
	C912.948364,545.547119 909.812988,549.192749 905.073853,551.917419 
	C897.355957,556.354675 887.345459,555.482239 880.218994,549.885864 
	C872.551331,543.864563 869.219360,533.162964 872.118469,523.868103 
	C875.189941,514.020630 882.687134,507.899841 893.174133,507.039551 
z"/>
<path fill="#F4F4F4" opacity="1.000000" stroke="none" 
	d="
M581.412598,508.059265 
	C594.528870,504.674988 604.009094,510.567322 605.006958,522.693420 
	C593.101990,522.693420 581.216736,522.693420 568.790588,522.693420 
	C570.652771,515.896545 574.476685,510.951935 581.412598,508.059265 
z"/>
<path fill="#F4F4F4" opacity="1.000000" stroke="none" 
	d="
M756.775513,523.047058 
	C746.505493,523.046997 736.705139,523.046997 726.881531,523.046997 
	C727.879761,513.764099 736.117981,506.935883 745.950500,507.034637 
	C755.623901,507.131805 761.699707,512.785767 762.589661,523.047119 
	C760.779358,523.047119 759.012268,523.047119 756.775513,523.047058 
z"/>
<path fill="#F1F8F8" opacity="1.000000" stroke="none" 
	d="
M180.123795,599.847412 
	C187.605881,600.815613 191.454010,608.343689 187.286835,613.977234 
	C185.786163,616.006104 182.192200,617.936401 179.936584,617.567749 
	C177.456421,617.162415 174.507629,614.469238 173.403107,612.030090 
	C171.812256,608.516907 172.471939,604.448425 175.762451,601.629639 
	C176.813293,600.729492 178.380478,600.432190 180.123795,599.847412 
z"/>
<path fill="#E3F2F2" opacity="1.000000" stroke="none" 
	d="
M517.466187,600.062500 
	C518.837097,601.592102 519.796326,603.061035 520.755615,604.529968 
	C518.550415,605.678894 516.345215,606.827820 513.358276,608.384033 
	C513.026978,603.682983 510.723480,599.637024 517.466187,600.062500 
z"/>
<path fill="#F1F8F8" opacity="1.000000" stroke="none" 
	d="
M258.806976,601.670532 
	C262.732971,599.261414 266.312317,598.805420 269.555206,602.027283 
	C272.489685,604.942749 273.019379,610.342224 270.809845,614.086853 
	C268.891876,617.337280 265.918488,618.497253 262.302826,617.788391 
	C256.092773,616.570862 254.249420,608.757324 258.806976,601.670532 
z"/>
<path fill="#EEF7F7" opacity="1.000000" stroke="none" 
	d="
M656.199646,606.322388 
	C655.945557,609.551453 656.007385,612.432617 655.250854,615.079895 
	C654.910645,616.270569 652.882385,617.802185 651.716248,617.724976 
	C650.263000,617.628845 647.851379,616.172607 647.702271,615.056580 
	C647.162964,611.022278 647.059082,606.842163 647.558716,602.812317 
	C647.699890,601.673950 651.429504,599.731079 651.854370,600.094849 
	C653.639282,601.623047 654.795532,603.885559 656.199646,606.322388 
z"/>
<path fill="#E3F2F2" opacity="1.000000" stroke="none" 
	d="
M554.647095,607.348389 
	C554.376038,604.899414 554.376038,602.783264 554.376038,600.837891 
	C554.931274,600.501709 555.246826,600.147644 555.476379,600.196533 
	C558.085083,600.753052 560.757874,601.175903 563.210571,602.147034 
	C563.668213,602.328186 563.579407,605.859375 563.145813,605.999634 
	C560.498962,606.856018 557.679871,607.179810 554.647095,607.348389 
z"/>
<path fill="#E3F2F2" opacity="1.000000" stroke="none" 
	d="
M24.025627,604.895752 
	C23.919418,602.027100 23.870707,599.250366 27.379343,600.073181 
	C29.636282,600.602478 31.623363,602.282593 33.731407,603.446838 
	C32.697674,604.927734 31.868757,607.405090 30.584871,607.669006 
	C28.348038,608.128784 24.745707,610.031372 24.025627,604.895752 
z"/>
<path fill="#D1EAEB" opacity="1.000000" stroke="none" 
	d="
M351.694214,609.588318 
	C352.573883,607.098145 353.327576,604.964661 354.462952,601.750671 
	C355.599976,605.657043 356.403381,608.417114 357.206787,611.177246 
	C356.864532,611.608643 356.522308,612.040039 356.180054,612.471436 
	C354.642792,611.629272 353.105499,610.787109 351.694214,609.588318 
z"/>
<path fill="#E3F2F2" opacity="1.000000" stroke="none" 
	d="
M759.149170,615.944946 
	C759.438171,614.052795 759.596863,611.424805 760.518677,611.122314 
	C762.246460,610.555237 764.615540,610.922852 766.309631,611.743896 
	C767.051208,612.103210 767.432007,615.439880 766.857483,615.847656 
	C765.355347,616.913757 763.259705,617.252808 761.348938,617.567505 
	C760.774475,617.662109 760.029907,616.723755 759.149170,615.944946 
z"/>
<path fill="#E3F2F2" opacity="1.000000" stroke="none" 
	d="
M845.351929,611.946777 
	C846.679016,614.997681 846.381592,617.455200 843.056824,617.762878 
	C841.425110,617.913879 839.436218,616.803711 838.035461,615.715393 
	C837.372070,615.199829 837.225525,612.597839 837.682617,612.320312 
	C839.232666,611.378662 841.129822,610.907776 842.952454,610.570862 
	C843.581238,610.454590 844.380066,611.257935 845.351929,611.946777 
z"/>
<path fill="#FBFBFC" opacity="1.000000" stroke="none" 
	d="
M839.042236,606.051147 
	C838.954834,606.352539 838.742981,606.525391 838.531128,606.698242 
	C838.465942,606.452148 838.400757,606.206116 838.500305,605.814453 
	C838.664978,605.668884 838.917664,605.922607 839.042236,606.051147 
z"/>
</svg>